<svg width="1009.334" height="265.333" viewBox="0 0 757 199" xmlns="http://www.w3.org/2000/svg" version="1.2" baseProfile="tiny"><g fill="none" stroke="#000" fill-rule="evenodd" stroke-linecap="square" stroke-linejoin="bevel" font-weight="400"><path fill-rule="nonzero" d="M433.998 58.806c8.13 3.956 18.8 3.956 26.93 0l-.24-.57c-7.89 2.873-18.56 2.873-26.45 0l-.24.57M643.408 58.806c8.13 3.956 18.81 3.956 26.94 0l-.25-.57c-7.88 2.873-18.56 2.873-26.44 0l-.25.57" fill="#000" stroke="none" font-family="MS Shell Dlg 2" font-size="7.8"/><g fill="none" stroke-width=".62" stroke-linecap="butt" stroke-linejoin="miter" stroke-miterlimit="2" font-family="MS Shell Dlg 2" font-size="7.8"><path d="M2.038 39.692h757M2.038 44.652h757M2.038 49.612h757M2.038 59.532h757M2.038 54.572h757"/></g><g fill="none" stroke-width=".992" stroke-linecap="butt" stroke-linejoin="miter" stroke-miterlimit="2" font-family="MS Shell Dlg 2" font-size="7.8"><path d="M199.308 39.382v20.46M339.738 39.382v20.46M549.128 39.382v20.46"/></g><g fill="none" stroke-width=".31" stroke-linecap="butt" stroke-linejoin="miter" stroke-miterlimit="2" font-family="MS Shell Dlg 2" font-size="7.8"><path d="M445.038 79.633h18.43M667.248 79.633h5.64"/></g><g fill="none" stroke-width=".595" stroke-linecap="butt" stroke-linejoin="miter" stroke-miterlimit="2" font-family="MS Shell Dlg 2" font-size="7.8"><path d="M38.489 37.832V53.64M70.253 48.045v15.207M107.998 50.525v14.587M178.418 39.89v16.23M216.648 37.832V53.64M270.028 44.652V61.08M357.068 34.732V56.12M383.758 34.732V53.64M410.438 34.732V48.68M437.108 34.732V53.64M463.798 37.832V53.64M528.238 39.89v16.23M566.468 34.732V53.64M593.148 34.732V51.16M619.838 34.732V48.68M646.528 34.732V53.64M673.218 37.832V53.64M737.648 37.41v16.23"/></g><path fill-rule="nonzero" d="M30.632 24.987c0 .066.033.121.1.121.01 0 .032 0 .054-.01l.396-.155c.022-.01.033-.01.055-.01.055 0 .1.043.1.11v2.001a.254.254 0 01-.155.231l-.396.154a.251.251 0 00-.154.22v.946c0 .066.033.121.1.121.01 0 .032 0 .054-.01l.396-.155c.022-.01.033-.01.055-.01.055 0 .1.043.1.11v1.1a.17.17 0 00.164.164h.11a.17.17 0 00.165-.165v-1.265c0-.088.066-.198.154-.23l.836-.32c.022-.01.033-.01.055-.01.055 0 .1.043.1.12v1.045a.17.17 0 00.164.165h.11a.17.17 0 00.165-.165v-1.22c0-.089.066-.188.154-.22l.374-.155a.251.251 0 00.154-.22v-.946c0-.066-.033-.12-.099-.12-.01 0-.033 0-.055.01l-.374.154a.12.12 0 01-.055.011c-.066 0-.099-.055-.099-.12V24.26c0-.088.066-.187.154-.22l.374-.154a.251.251 0 00.154-.22v-.946c0-.066-.033-.12-.099-.12-.01 0-.033 0-.055.01l-.374.154c-.022.011-.044.011-.055.011-.066 0-.099-.055-.099-.12v-1.1a.17.17 0 00-.165-.166h-.11a.17.17 0 00-.165.165v1.276a.251.251 0 01-.154.22l-.836.32c-.022.01-.033.01-.055.01-.055 0-.099-.044-.099-.11v-1.056a.17.17 0 00-.165-.165h-.11a.17.17 0 00-.165.165v1.221a.254.254 0 01-.154.231l-.396.154a.251.251 0 00-.154.22v.946m1.298-.34l.836-.32c.022-.01.033-.01.055-.01.055 0 .1.043.1.12v2.002a.251.251 0 01-.155.22l-.836.32c-.022.01-.033.01-.055.01-.055 0-.099-.044-.099-.11v-2.002c0-.088.066-.198.154-.23M106.81 24.987c0 .066.033.121.099.121.011 0 .033 0 .055-.01l.396-.155c.022-.01.033-.01.055-.01.055 0 .099.043.099.11v2.001a.254.254 0 01-.154.231l-.396.154a.251.251 0 00-.154.22v.946c0 .066.033.121.099.121.011 0 .033 0 .055-.01l.396-.155c.022-.01.033-.01.055-.01.055 0 .099.043.099.11v1.1a.17.17 0 00.165.164h.11a.17.17 0 00.165-.165v-1.265c0-.088.066-.198.154-.23l.836-.32c.022-.01.033-.01.055-.01.055 0 .099.043.099.12v1.045a.17.17 0 00.165.165h.11a.17.17 0 00.165-.165v-1.22c0-.089.066-.188.154-.22l.374-.155a.251.251 0 00.154-.22v-.946c0-.066-.033-.12-.099-.12-.011 0-.033 0-.055.01l-.374.154a.12.12 0 01-.055.011c-.066 0-.099-.055-.099-.12V24.26c0-.088.066-.187.154-.22l.374-.154a.251.251 0 00.154-.22v-.946c0-.066-.033-.12-.099-.12-.011 0-.033 0-.055.01l-.374.154c-.022.011-.044.011-.055.011-.066 0-.099-.055-.099-.12v-1.1a.17.17 0 00-.165-.166h-.11a.17.17 0 00-.165.165v1.276a.251.251 0 01-.154.22l-.836.32c-.022.01-.033.01-.055.01-.055 0-.099-.044-.099-.11v-1.056a.17.17 0 00-.165-.165h-.11a.17.17 0 00-.165.165v1.221a.254.254 0 01-.154.231l-.396.154a.251.251 0 00-.154.22v.946m1.298-.34l.836-.32c.022-.01.033-.01.055-.01.055 0 .099.043.099.12v2.002a.251.251 0 01-.154.22l-.836.32c-.022.01-.033.01-.055.01-.055 0-.099-.044-.099-.11v-2.002c0-.088.066-.198.154-.23M212.887 24.987c0 .066.033.121.099.121.011 0 .033 0 .055-.01l.396-.155c.022-.01.033-.01.055-.01.055 0 .099.043.099.11v2.001a.254.254 0 01-.154.231l-.396.154a.251.251 0 00-.154.22v.946c0 .066.033.121.099.121.011 0 .033 0 .055-.01l.396-.155c.022-.01.033-.01.055-.01.055 0 .099.043.099.11v1.1a.17.17 0 00.165.164h.11a.17.17 0 00.165-.165v-1.265c0-.088.066-.198.154-.23l.836-.32c.022-.01.033-.01.055-.01.055 0 .099.043.099.12v1.045a.17.17 0 00.165.165h.11a.17.17 0 00.165-.165v-1.22c0-.089.066-.188.154-.22l.374-.155a.251.251 0 00.154-.22v-.946c0-.066-.033-.12-.099-.12-.011 0-.033 0-.055.01l-.374.154a.12.12 0 01-.055.011c-.066 0-.099-.055-.099-.12V24.26c0-.088.066-.187.154-.22l.374-.154a.251.251 0 00.154-.22v-.946c0-.066-.033-.12-.099-.12-.011 0-.033 0-.055.01l-.374.154c-.022.011-.044.011-.055.011-.066 0-.099-.055-.099-.12v-1.1a.17.17 0 00-.165-.166h-.11a.17.17 0 00-.165.165v1.276a.251.251 0 01-.154.22l-.836.32c-.022.01-.033.01-.055.01-.055 0-.099-.044-.099-.11v-1.056a.17.17 0 00-.165-.165h-.11a.17.17 0 00-.165.165v1.221a.254.254 0 01-.154.231l-.396.154a.251.251 0 00-.154.22v.946m1.298-.34l.836-.32c.022-.01.033-.01.055-.01.055 0 .099.043.099.12v2.002a.251.251 0 01-.154.22l-.836.32c-.022.01-.033.01-.055.01-.055 0-.099-.044-.099-.11v-2.002c0-.088.066-.198.154-.23" fill="#000" stroke="none" font-family="Bravura Text" font-size="22"/><path fill-rule="nonzero" d="M217.576 26.856l.792-.784c.496.392 1.104.6 1.744.6a2.837 2.837 0 002.832-2.832c0-.624-.208-1.216-.576-1.704l.744-.736-.544-.552-.744.744a2.754 2.754 0 00-1.712-.584 2.837 2.837 0 00-2.832 2.832c0 .608.192 1.2.552 1.68l-.8.776.544.56m1.344-1.328l2.896-2.856a2.1 2.1 0 01.36 1.168 2.069 2.069 0 01-3.256 1.688m1.192-3.752c.432 0 .824.128 1.16.36l-2.88 2.84a2.059 2.059 0 011.72-3.2" fill="#000" stroke="none" font-family="Bravura Text" font-size="16"/><path fill-rule="nonzero" d="M353.508 24.987c0 .066.033.121.099.121.011 0 .033 0 .055-.01l.396-.155c.022-.01.033-.01.055-.01.055 0 .099.043.099.11v2.001a.254.254 0 01-.154.231l-.396.154a.251.251 0 00-.154.22v.946c0 .066.033.121.099.121.011 0 .033 0 .055-.01l.396-.155c.022-.01.033-.01.055-.01.055 0 .099.043.099.11v1.1a.17.17 0 00.165.164h.11a.17.17 0 00.165-.165v-1.265c0-.088.066-.198.154-.23l.836-.32c.022-.01.033-.01.055-.01.055 0 .099.043.099.12v1.045a.17.17 0 00.165.165h.11a.17.17 0 00.165-.165v-1.22c0-.089.066-.188.154-.22l.374-.155a.251.251 0 00.154-.22v-.946c0-.066-.033-.12-.099-.12-.011 0-.033 0-.055.01l-.374.154a.12.12 0 01-.055.011c-.066 0-.099-.055-.099-.12V24.26c0-.088.066-.187.154-.22l.374-.154a.251.251 0 00.154-.22v-.946c0-.066-.033-.12-.099-.12-.011 0-.033 0-.055.01l-.374.154c-.022.011-.044.011-.055.011-.066 0-.099-.055-.099-.12v-1.1a.17.17 0 00-.165-.166h-.11a.17.17 0 00-.165.165v1.276a.251.251 0 01-.154.22l-.836.32c-.022.01-.033.01-.055.01-.055 0-.099-.044-.099-.11v-1.056a.17.17 0 00-.165-.165h-.11a.17.17 0 00-.165.165v1.221a.254.254 0 01-.154.231l-.396.154a.251.251 0 00-.154.22v.946m1.298-.34l.836-.32c.022-.01.033-.01.055-.01.055 0 .099.043.099.12v2.002a.251.251 0 01-.154.22l-.836.32c-.022.01-.033.01-.055.01-.055 0-.099-.044-.099-.11v-2.002c0-.088.066-.198.154-.23" fill="#000" stroke="none" font-family="Bravura Text" font-size="22"/><path fill-rule="nonzero" d="M360.49 26.672a2.854 2.854 0 002.848-2.848c0-1.568-1.288-2.832-2.848-2.832a2.837 2.837 0 00-2.832 2.832c0 1.552 1.272 2.848 2.832 2.848m0-4.912c1.144 0 2.08.928 2.08 2.064 0 1.144-.936 2.08-2.08 2.08a2.078 2.078 0 01-2.064-2.08c0-1.136.928-2.064 2.064-2.064" fill="#000" stroke="none" font-family="Bravura Text" font-size="16"/><path fill-rule="nonzero" d="M562.393 24.987c0 .066.033.121.099.121.011 0 .033 0 .055-.01l.396-.155c.022-.01.033-.01.055-.01.055 0 .099.043.099.11v2.001a.254.254 0 01-.154.231l-.396.154a.251.251 0 00-.154.22v.946c0 .066.033.121.099.121.011 0 .033 0 .055-.01l.396-.155c.022-.01.033-.01.055-.01.055 0 .099.043.099.11v1.1a.17.17 0 00.165.164h.11a.17.17 0 00.165-.165v-1.265c0-.088.066-.198.154-.23l.836-.32c.022-.01.033-.01.055-.01.055 0 .099.043.099.12v1.045a.17.17 0 00.165.165h.11a.17.17 0 00.165-.165v-1.22c0-.089.066-.188.154-.22l.374-.155a.251.251 0 00.154-.22v-.946c0-.066-.033-.12-.099-.12-.011 0-.033 0-.055.01l-.374.154a.12.12 0 01-.055.011c-.066 0-.099-.055-.099-.12V24.26c0-.088.066-.187.154-.22l.374-.154a.251.251 0 00.154-.22v-.946c0-.066-.033-.12-.099-.12-.011 0-.033 0-.055.01l-.374.154c-.022.011-.044.011-.055.011-.066 0-.099-.055-.099-.12v-1.1a.17.17 0 00-.165-.166h-.11a.17.17 0 00-.165.165v1.276a.251.251 0 01-.154.22l-.836.32c-.022.01-.033.01-.055.01-.055 0-.099-.044-.099-.11v-1.056a.17.17 0 00-.165-.165h-.11a.17.17 0 00-.165.165v1.221a.254.254 0 01-.154.231l-.396.154a.251.251 0 00-.154.22v.946m1.298-.34l.836-.32c.022-.01.033-.01.055-.01.055 0 .099.043.099.12v2.002a.251.251 0 01-.154.22l-.836.32c-.022.01-.033.01-.055.01-.055 0-.099-.044-.099-.11v-2.002c0-.088.066-.198.154-.23" fill="#000" stroke="none" font-family="Bravura Text" font-size="22"/><path fill-rule="nonzero" d="M569.376 26.672a2.854 2.854 0 002.848-2.848c0-1.568-1.288-2.832-2.848-2.832a2.837 2.837 0 00-2.832 2.832c0 1.552 1.272 2.848 2.832 2.848m0-4.912c1.144 0 2.08.928 2.08 2.064 0 1.144-.936 2.08-2.08 2.08a2.078 2.078 0 01-2.064-2.08c0-1.136.928-2.064 2.064-2.064" fill="#000" stroke="none" font-family="Bravura Text" font-size="16"/><path fill-rule="nonzero" d="M26.153 58.752c.02 0 .06-.02.08-.02 0 0 .28-.12.46-.18.02-.02.04-.02.06-.02.14 0 .24.22.24.32v2.46c0 .12.12.22.26.22.2 0 .34-.1.34-.22v-2.78c0-.26.1-.4.2-.44l1.22-.5c.02 0 .06-.02.08-.02.16 0 .26.24.26.36v2.5c0 .12.12.22.26.22.22 0 .34-.1.34-.22v-2.84c0-.16.08-.4.22-.46s.56-.22.56-.22c.14-.06.24-.22.24-.34v-1.42c0-.1-.06-.16-.14-.16-.04 0-.06 0-.1.02l-.52.2c-.12 0-.26-.12-.26-.36v-1.86c0-.14.1-.52.26-.58l.52-.2c.14-.06.24-.22.24-.34v-1.42c0-.1-.06-.16-.14-.16-.04 0-.06 0-.1.02 0 0-.4.16-.5.18-.14 0-.28-.1-.28-.26v-2.44c0-.12-.12-.22-.28-.22-.2 0-.32.1-.32.22v2.6c-.02.2-.08.46-.26.58-.24.14-.92.42-1.26.5-.18 0-.24-.24-.24-.4v-2.4c0-.12-.14-.22-.28-.22-.2 0-.32.1-.32.22v2.7c0 .28-.12.48-.24.54-.12.06-.52.22-.52.22-.14.04-.24.2-.24.32v1.42c0 .12.06.18.16.18.08 0 .46-.18.52-.22.2 0 .32.1.32.34v1.98c0 .22-.1.4-.22.46-.12.04-.54.22-.54.22-.14.04-.24.2-.24.32v1.42c0 .12.06.18.16.18m1.44-5.06c.04-.34.96-.76 1.46-.76.14 0 .26.04.3.12.04.1.08.6.08 1.14 0 .54-.04 1.1-.08 1.28-.12.4-1.06.8-1.52.8-.12 0-.22-.04-.24-.1-.04-.08-.06-.52-.06-1 0-.62.02-1.32.06-1.48M34.37 57.372c1.98 0 4.42-1.84 4.42-3.74 0-1.12-.9-1.86-2.18-1.86-2.44 0-4.4 1.82-4.4 3.74 0 1.16.96 1.86 2.16 1.86M63.9 51.312c.02 0 .06-.02.08-.02 0 0 .28-.12.46-.18.02-.02.04-.02.06-.02.14 0 .24.22.24.32v2.46c0 .12.12.22.26.22.2 0 .34-.1.34-.22v-2.78c0-.26.1-.4.2-.44l1.22-.5c.02 0 .06-.02.08-.02.16 0 .26.24.26.36v2.5c0 .12.12.22.26.22.22 0 .34-.1.34-.22v-2.84c0-.16.08-.4.22-.46s.56-.22.56-.22c.14-.06.24-.22.24-.34v-1.42c0-.1-.06-.16-.14-.16-.04 0-.06 0-.1.02l-.52.2c-.12 0-.26-.12-.26-.36v-1.86c0-.14.1-.52.26-.58l.52-.2c.14-.06.24-.22.24-.34v-1.42c0-.1-.06-.16-.14-.16-.04 0-.06 0-.1.02 0 0-.4.16-.5.18-.14 0-.28-.1-.28-.26v-2.44c0-.12-.12-.22-.28-.22-.2 0-.32.1-.32.22v2.6c-.02.2-.08.46-.26.58-.24.14-.92.42-1.26.5-.18 0-.24-.24-.24-.4v-2.4c0-.12-.14-.22-.28-.22-.2 0-.32.1-.32.22v2.7c0 .28-.12.48-.24.54-.12.06-.52.22-.52.22-.14.04-.24.2-.24.32v1.42c0 .12.06.18.16.18.08 0 .46-.18.52-.22.2 0 .32.1.32.34v1.98c0 .22-.1.4-.22.46-.12.04-.54.22-.54.22-.14.04-.24.2-.24.32v1.42c0 .12.06.18.16.18m1.44-5.06c.04-.34.96-.76 1.46-.76.14 0 .26.04.3.12.04.1.08.6.08 1.14 0 .54-.04 1.1-.08 1.28-.12.4-1.06.8-1.52.8-.12 0-.22-.04-.24-.1-.04-.08-.06-.52-.06-1 0-.62.02-1.32.06-1.48M72.116 49.932c1.98 0 4.42-1.84 4.42-3.74 0-1.12-.9-1.86-2.18-1.86-2.44 0-4.4 1.82-4.4 3.74 0 1.16.96 1.86 2.16 1.86M109.856 52.412c1.98 0 4.42-1.84 4.42-3.74 0-1.12-.9-1.86-2.18-1.86-2.44 0-4.4 1.82-4.4 3.74 0 1.16.96 1.86 2.16 1.86M148.123 47.472a1.34 1.34 0 00-2.68 0c0 .42.24.78.54 1.02.32.22.7.34 1.08.34.28 0 .56-.06.78-.14.28-.08.46-.16.72-.3.04-.02.08-.02.1-.02.08 0 .1.08.1.18 0 .06 0 .14-.02.22-.06.3-1.5 4.28-1.86 5.6 0 .24.46.26.58.26.22 0 .5-.04.7-.2.06-.04 2.02-7.06 2.02-7.06.08-.36.18-.68.2-.78 0-.2-.2-.3-.24-.32-.04 0-.1 0-.22.08-.14.12-1.14 1.32-1.8 1.32v-.2M166.076 61.232c.02 0 .06-.02.08-.02 0 0 .28-.12.46-.18.02-.02.04-.02.06-.02.14 0 .24.22.24.32v2.46c0 .12.12.22.26.22.2 0 .34-.1.34-.22v-2.78c0-.26.1-.4.2-.44l1.22-.5c.02 0 .06-.02.08-.02.16 0 .26.24.26.36v2.5c0 .12.12.22.26.22.22 0 .34-.1.34-.22v-2.84c0-.16.08-.4.22-.46s.56-.22.56-.22c.14-.06.24-.22.24-.34v-1.42c0-.1-.06-.16-.14-.16-.04 0-.06 0-.1.02l-.52.2c-.12 0-.26-.12-.26-.36v-1.86c0-.14.1-.52.26-.58l.52-.2c.14-.06.24-.22.24-.34v-1.42c0-.1-.06-.16-.14-.16-.04 0-.06 0-.1.02 0 0-.4.16-.5.18-.14 0-.28-.1-.28-.26v-2.44c0-.12-.12-.22-.28-.22-.2 0-.32.1-.32.22v2.6c-.02.2-.08.46-.26.58-.24.14-.92.42-1.26.5-.18 0-.24-.24-.24-.4v-2.4c0-.12-.14-.22-.28-.22-.2 0-.32.1-.32.22v2.7c0 .28-.12.48-.24.54-.12.06-.52.22-.52.22-.14.04-.24.2-.24.32v1.42c0 .12.06.18.16.18.08 0 .46-.18.52-.22.2 0 .32.1.32.34v1.98c0 .22-.1.4-.22.46-.12.04-.54.22-.54.22-.14.04-.24.2-.24.32v1.42c0 .12.06.18.16.18m1.44-5.06c.04-.34.96-.76 1.46-.76.14 0 .26.04.3.12.04.1.08.6.08 1.14 0 .54-.04 1.1-.08 1.28-.12.4-1.06.8-1.52.8-.12 0-.22-.04-.24-.1-.04-.08-.06-.52-.06-1 0-.62.02-1.32.06-1.48M182.876 55.492s.52-1.9.52-3.46c0-2.5-1.04-4.86-2.3-6.86-1.02-1.58-1.86-3.3-2.18-5.22-.06-.32-.22-.44-.6-.44-.12 0-.2.06-.2.3v4.78c1.32.24 3.22 2.96 3.94 4.66.3.68.48 1.82.48 3 0 .9-.14 1.84-.48 2.74-.04.12-.06.22-.06.3 0 .32.2.5.32.58.02.02.06.02.1.02.14 0 .38-.12.46-.4M174.293 59.852c1.98 0 4.42-1.84 4.42-3.74 0-1.12-.9-1.86-2.18-1.86-2.44 0-4.4 1.82-4.4 3.74 0 1.16.96 1.86 2.16 1.86M204.311 58.752c.02 0 .06-.02.08-.02 0 0 .28-.12.46-.18.02-.02.04-.02.06-.02.14 0 .24.22.24.32v2.46c0 .12.12.22.26.22.2 0 .34-.1.34-.22v-2.78c0-.26.1-.4.2-.44l1.22-.5c.02 0 .06-.02.08-.02.16 0 .26.24.26.36v2.5c0 .12.12.22.26.22.22 0 .34-.1.34-.22v-2.84c0-.16.08-.4.22-.46s.56-.22.56-.22c.14-.06.24-.22.24-.34v-1.42c0-.1-.06-.16-.14-.16-.04 0-.06 0-.1.02l-.52.2c-.12 0-.26-.12-.26-.36v-1.86c0-.14.1-.52.26-.58l.52-.2c.14-.06.24-.22.24-.34v-1.42c0-.1-.06-.16-.14-.16-.04 0-.06 0-.1.02 0 0-.4.16-.5.18-.14 0-.28-.1-.28-.26v-2.44c0-.12-.12-.22-.28-.22-.2 0-.32.1-.32.22v2.6c-.02.2-.08.46-.26.58-.24.14-.92.42-1.26.5-.18 0-.24-.24-.24-.4v-2.4c0-.12-.14-.22-.28-.22-.2 0-.32.1-.32.22v2.7c0 .28-.12.48-.24.54-.12.06-.52.22-.52.22-.14.04-.24.2-.24.32v1.42c0 .12.06.18.16.18.08 0 .46-.18.52-.22.2 0 .32.1.32.34v1.98c0 .22-.1.4-.22.46-.12.04-.54.22-.54.22-.14.04-.24.2-.24.32v1.42c0 .12.06.18.16.18m1.44-5.06c.04-.34.96-.76 1.46-.76.14 0 .26.04.3.12.04.1.08.6.08 1.14 0 .54-.04 1.1-.08 1.28-.12.4-1.06.8-1.52.8-.12 0-.22-.04-.24-.1-.04-.08-.06-.52-.06-1 0-.62.02-1.32.06-1.48M212.528 57.372c3.68 0 4.42-3 4.42-3.72 0-1.14-.9-1.88-2.2-1.88-3.34 0-4.38 2.58-4.38 3.74 0 1.18.94 1.86 2.16 1.86m1.7-1.78c-1 .68-1.7.92-2.18.92-.46 0-.74-.24-.88-.52a.82.82 0 01-.14-.44c0-1.08 3.22-2.86 4.28-2.86.42 0 .66.2.82.48.06.12.12.26.12.42 0 .44-.46.98-2.02 2M257.692 66.192c.02 0 .06-.02.08-.02 0 0 .28-.12.46-.18.02-.02.04-.02.06-.02.14 0 .24.22.24.32v2.46c0 .12.12.22.26.22.2 0 .34-.1.34-.22v-2.78c0-.26.1-.4.2-.44l1.22-.5c.02 0 .06-.02.08-.02.16 0 .26.24.26.36v2.5c0 .12.12.22.26.22.22 0 .34-.1.34-.22v-2.84c0-.16.08-.4.22-.46s.56-.22.56-.22c.14-.06.24-.22.24-.34v-1.42c0-.1-.06-.16-.14-.16-.04 0-.06 0-.1.02l-.52.2c-.12 0-.26-.12-.26-.36v-1.86c0-.14.1-.52.26-.58l.52-.2c.14-.06.24-.22.24-.34v-1.42c0-.1-.06-.16-.14-.16-.04 0-.06 0-.1.02 0 0-.4.16-.5.18-.14 0-.28-.1-.28-.26v-2.44c0-.12-.12-.22-.28-.22-.2 0-.32.1-.32.22v2.6c-.02.2-.08.46-.26.58-.24.14-.92.42-1.26.5-.18 0-.24-.24-.24-.4v-2.4c0-.12-.14-.22-.28-.22-.2 0-.32.1-.32.22v2.7c0 .28-.12.48-.24.54-.12.06-.52.22-.52.22-.14.04-.24.2-.24.32v1.42c0 .12.06.18.16.18.08 0 .46-.18.52-.22.2 0 .32.1.32.34v1.98c0 .22-.1.4-.22.46-.12.04-.54.22-.54.22-.14.04-.24.2-.24.32v1.42c0 .12.06.18.16.18m1.44-5.06c.04-.34.96-.76 1.46-.76.14 0 .26.04.3.12.04.1.08.6.08 1.14 0 .54-.04 1.1-.08 1.28-.12.4-1.06.8-1.52.8-.12 0-.22-.04-.24-.1-.04-.08-.06-.52-.06-1 0-.62.02-1.32.06-1.48M265.908 64.812c1.98 0 4.42-1.84 4.42-3.74 0-1.12-.9-1.86-2.18-1.86-2.44 0-4.4 1.82-4.4 3.74 0 1.16.96 1.86 2.16 1.86M303.039 50.372c.32.4.6.78.86 1.2.04.08.12.24.12.28 0 .02 0 .06-.02.08-.04.08-.12.1-.22.1-.08 0-.24-.04-.32-.06-.1 0-.22-.06-.32-.06-.86 0-1.64.86-1.64 1.92 0 1 .86 1.98 2.32 3.1.16.12.36.18.52.18.14 0 .28-.04.3-.12.02-.06.04-.1.04-.14 0-.18-.16-.34-.32-.48-.26 0-.48-.54-.52-.72-.06-.16-.08-.34-.08-.52 0-.82.42-1.46 1.26-1.46.58 0 1.24.22 1.56.34.02 0 .04.02.06.02.06.02.1.02.14.02.06 0 .1-.02.1-.08 0-.24-.52-.9-.74-1.14-.76-.92-1.38-1.66-1.38-2.78 0-.08.02-.18.02-.26.08-1.16.8-2.12 1.32-2.94.06-.1.08-.2.08-.3 0-.2-.08-.38-.08-.38s-2.96-3.52-3.3-3.86c-.1-.1-.24-.16-.36-.16-.2 0-.4.14-.4.42 0 .1.02.2.08.32.08.22 1.22 1.24 1.22 2.68 0 .74-.3 1.6-1.2 2.54-.2.2-.28.42-.28.58 0 .28.2.48.2.48l.98 1.2M344.733 61.232c.02 0 .06-.02.08-.02 0 0 .28-.12.46-.18.02-.02.04-.02.06-.02.14 0 .24.22.24.32v2.46c0 .12.12.22.26.22.2 0 .34-.1.34-.22v-2.78c0-.26.1-.4.2-.44l1.22-.5c.02 0 .06-.02.08-.02.16 0 .26.24.26.36v2.5c0 .12.12.22.26.22.22 0 .34-.1.34-.22v-2.84c0-.16.08-.4.22-.46s.56-.22.56-.22c.14-.06.24-.22.24-.34v-1.42c0-.1-.06-.16-.14-.16-.04 0-.06 0-.1.02l-.52.2c-.12 0-.26-.12-.26-.36v-1.86c0-.14.1-.52.26-.58l.52-.2c.14-.06.24-.22.24-.34v-1.42c0-.1-.06-.16-.14-.16-.04 0-.06 0-.1.02 0 0-.4.16-.5.18-.14 0-.28-.1-.28-.26v-2.44c0-.12-.12-.22-.28-.22-.2 0-.32.1-.32.22v2.6c-.02.2-.08.46-.26.58-.24.14-.92.42-1.26.5-.18 0-.24-.24-.24-.4v-2.4c0-.12-.14-.22-.28-.22-.2 0-.32.1-.32.22v2.7c0 .28-.12.48-.24.54-.12.06-.52.22-.52.22-.14.04-.24.2-.24.32v1.42c0 .12.06.18.16.18.08 0 .46-.18.52-.22.2 0 .32.1.32.34v1.98c0 .22-.1.4-.22.46-.12.04-.54.22-.54.22-.14.04-.24.2-.24.32v1.42c0 .12.06.18.16.18m1.44-5.06c.04-.34.96-.76 1.46-.76.14 0 .26.04.3.12.04.1.08.6.08 1.14 0 .54-.04 1.1-.08 1.28-.12.4-1.06.8-1.52.8-.12 0-.22-.04-.24-.1-.04-.08-.06-.52-.06-1 0-.62.02-1.32.06-1.48M352.95 59.852c1.98 0 4.42-1.84 4.42-3.74 0-1.12-.9-1.86-2.18-1.86-2.44 0-4.4 1.82-4.4 3.74 0 1.16.96 1.86 2.16 1.86M371.418 58.752c.02 0 .06-.02.08-.02 0 0 .28-.12.46-.18.02-.02.04-.02.06-.02.14 0 .24.22.24.32v2.46c0 .12.12.22.26.22.2 0 .34-.1.34-.22v-2.78c0-.26.1-.4.2-.44l1.22-.5c.02 0 .06-.02.08-.02.16 0 .26.24.26.36v2.5c0 .12.12.22.26.22.22 0 .34-.1.34-.22v-2.84c0-.16.08-.4.22-.46s.56-.22.56-.22c.14-.06.24-.22.24-.34v-1.42c0-.1-.06-.16-.14-.16-.04 0-.06 0-.1.02l-.52.2c-.12 0-.26-.12-.26-.36v-1.86c0-.14.1-.52.26-.58l.52-.2c.14-.06.24-.22.24-.34v-1.42c0-.1-.06-.16-.14-.16-.04 0-.06 0-.1.02 0 0-.4.16-.5.18-.14 0-.28-.1-.28-.26v-2.44c0-.12-.12-.22-.28-.22-.2 0-.32.1-.32.22v2.6c-.02.2-.08.46-.26.58-.24.14-.92.42-1.26.5-.18 0-.24-.24-.24-.4v-2.4c0-.12-.14-.22-.28-.22-.2 0-.32.1-.32.22v2.7c0 .28-.12.48-.24.54-.12.06-.52.22-.52.22-.14.04-.24.2-.24.32v1.42c0 .12.06.18.16.18.08 0 .46-.18.52-.22.2 0 .32.1.32.34v1.98c0 .22-.1.4-.22.46-.12.04-.54.22-.54.22-.14.04-.24.2-.24.32v1.42c0 .12.06.18.16.18m1.44-5.06c.04-.34.96-.76 1.46-.76.14 0 .26.04.3.12.04.1.08.6.08 1.14 0 .54-.04 1.1-.08 1.28-.12.4-1.06.8-1.52.8-.12 0-.22-.04-.24-.1-.04-.08-.06-.52-.06-1 0-.62.02-1.32.06-1.48M379.635 57.372c1.98 0 4.42-1.84 4.42-3.74 0-1.12-.9-1.86-2.18-1.86-2.44 0-4.4 1.82-4.4 3.74 0 1.16.96 1.86 2.16 1.86M406.313 52.412c1.98 0 4.42-1.84 4.42-3.74 0-1.12-.9-1.86-2.18-1.86-2.44 0-4.4 1.82-4.4 3.74 0 1.16.96 1.86 2.16 1.86M432.991 57.372c1.98 0 4.42-1.84 4.42-3.74 0-1.12-.9-1.86-2.18-1.86-2.44 0-4.4 1.82-4.4 3.74 0 1.16.96 1.86 2.16 1.86M459.681 57.372c1.98 0 4.42-1.84 4.42-3.74 0-1.12-.9-1.86-2.18-1.86-2.44 0-4.4 1.82-4.4 3.74 0 1.16.96 1.86 2.16 1.86M497.948 47.472a1.34 1.34 0 00-2.68 0c0 .42.24.78.54 1.02.32.22.7.34 1.08.34.28 0 .56-.06.78-.14.28-.08.46-.16.72-.3.04-.02.08-.02.1-.02.08 0 .1.08.1.18 0 .06 0 .14-.02.22-.06.3-1.5 4.28-1.86 5.6 0 .24.46.26.58.26.22 0 .5-.04.7-.2.06-.04 2.02-7.06 2.02-7.06.08-.36.18-.68.2-.78 0-.2-.2-.3-.24-.32-.04 0-.1 0-.22.08-.14.12-1.14 1.32-1.8 1.32v-.2M532.701 55.492s.52-1.9.52-3.46c0-2.5-1.04-4.86-2.3-6.86-1.02-1.58-1.86-3.3-2.18-5.22-.06-.32-.22-.44-.6-.44-.12 0-.2.06-.2.3v4.78c1.32.24 3.22 2.96 3.94 4.66.3.68.48 1.82.48 3 0 .9-.14 1.84-.48 2.74-.04.12-.06.22-.06.3 0 .32.2.5.32.58.02.02.06.02.1.02.14 0 .38-.12.46-.4M524.118 59.852c1.98 0 4.42-1.84 4.42-3.74 0-1.12-.9-1.86-2.18-1.86-2.44 0-4.4 1.82-4.4 3.74 0 1.16.96 1.86 2.16 1.86M554.126 58.752c.02 0 .06-.02.08-.02 0 0 .28-.12.46-.18.02-.02.04-.02.06-.02.14 0 .24.22.24.32v2.46c0 .12.12.22.26.22.2 0 .34-.1.34-.22v-2.78c0-.26.1-.4.2-.44l1.22-.5c.02 0 .06-.02.08-.02.16 0 .26.24.26.36v2.5c0 .12.12.22.26.22.22 0 .34-.1.34-.22v-2.84c0-.16.08-.4.22-.46s.56-.22.56-.22c.14-.06.24-.22.24-.34v-1.42c0-.1-.06-.16-.14-.16-.04 0-.06 0-.1.02l-.52.2c-.12 0-.26-.12-.26-.36v-1.86c0-.14.1-.52.26-.58l.52-.2c.14-.06.24-.22.24-.34v-1.42c0-.1-.06-.16-.14-.16-.04 0-.06 0-.1.02 0 0-.4.16-.5.18-.14 0-.28-.1-.28-.26v-2.44c0-.12-.12-.22-.28-.22-.2 0-.32.1-.32.22v2.6c-.02.2-.08.46-.26.58-.24.14-.92.42-1.26.5-.18 0-.24-.24-.24-.4v-2.4c0-.12-.14-.22-.28-.22-.2 0-.32.1-.32.22v2.7c0 .28-.12.48-.24.54-.12.06-.52.22-.52.22-.14.04-.24.2-.24.32v1.42c0 .12.06.18.16.18.08 0 .46-.18.52-.22.2 0 .32.1.32.34v1.98c0 .22-.1.4-.22.46-.12.04-.54.22-.54.22-.14.04-.24.2-.24.32v1.42c0 .12.06.18.16.18m1.44-5.06c.04-.34.96-.76 1.46-.76.14 0 .26.04.3.12.04.1.08.6.08 1.14 0 .54-.04 1.1-.08 1.28-.12.4-1.06.8-1.52.8-.12 0-.22-.04-.24-.1-.04-.08-.06-.52-.06-1 0-.62.02-1.32.06-1.48M562.343 57.372c1.98 0 4.42-1.84 4.42-3.74 0-1.12-.9-1.86-2.18-1.86-2.44 0-4.4 1.82-4.4 3.74 0 1.16.96 1.86 2.16 1.86M589.029 54.892c1.98 0 4.42-1.84 4.42-3.74 0-1.12-.9-1.86-2.18-1.86-2.44 0-4.4 1.82-4.4 3.74 0 1.16.96 1.86 2.16 1.86M615.714 52.412c1.98 0 4.42-1.84 4.42-3.74 0-1.12-.9-1.86-2.18-1.86-2.44 0-4.4 1.82-4.4 3.74 0 1.16.96 1.86 2.16 1.86M642.403 57.372c1.98 0 4.42-1.84 4.42-3.74 0-1.12-.9-1.86-2.18-1.86-2.44 0-4.4 1.82-4.4 3.74 0 1.16.96 1.86 2.16 1.86M669.093 57.372c1.98 0 4.42-1.84 4.42-3.74 0-1.12-.9-1.86-2.18-1.86-2.44 0-4.4 1.82-4.4 3.74 0 1.16.96 1.86 2.16 1.86M707.36 47.472a1.34 1.34 0 00-2.68 0c0 .42.24.78.54 1.02.32.22.7.34 1.08.34.28 0 .56-.06.78-.14.28-.08.46-.16.72-.3.04-.02.08-.02.1-.02.08 0 .1.08.1.18 0 .06 0 .14-.02.22-.06.3-1.5 4.28-1.86 5.6 0 .24.46.26.58.26.22 0 .5-.04.7-.2.06-.04 2.02-7.06 2.02-7.06.08-.36.18-.68.2-.78 0-.2-.2-.3-.24-.32-.04 0-.1 0-.22.08-.14.12-1.14 1.32-1.8 1.32v-.2M742.113 53.012s.52-1.9.52-3.46c0-2.5-1.04-4.86-2.3-6.86-1.02-1.58-1.86-3.3-2.18-5.22-.06-.32-.22-.44-.6-.44-.12 0-.2.06-.2.3v4.78c1.32.24 3.22 2.96 3.94 4.66.3.68.48 1.82.48 3 0 .9-.14 1.84-.48 2.74-.04.12-.06.22-.06.3 0 .32.2.5.32.58.02.02.06.02.1.02.14 0 .38-.12.46-.4M733.53 57.372c1.98 0 4.42-1.84 4.42-3.74 0-1.12-.9-1.86-2.18-1.86-2.44 0-4.4 1.82-4.4 3.74 0 1.16.96 1.86 2.16 1.86M13.919 35.712c.66 0 1.2.54 1.2 1.64 0 2.22-1.9 4.02-3.48 5.4-.06.04-.1.08-.14.08-.06 0-.1-.08-.12-.24-.08-.52-.12-1.2-.12-1.84 0-3.12 1.44-5.04 2.66-5.04m-.8 16.8c-.04-.22-.02-.28.14-.28h.08c1.62.14 2.96 1.5 2.96 3.26 0 1.26-.76 2.28-1.88 2.84-.1.04-.16.08-.2.08-.08 0-.1-.06-.12-.2l-.98-5.7m-1.38-3.18c.06.38.06.36-.3.48-1.76.6-2.9 2.18-2.9 3.88 0 1.8.94 3.08 2.3 3.54.16.06.4.12.54.12.16 0 .24-.1.24-.22 0-.14-.16-.2-.3-.26-.84-.36-1.44-1.22-1.44-2.14 0-1.14.78-2 2-2.34.1-.02.18-.04.24-.04.1 0 .14.06.16.2l1 5.96c.04.22.02.22-.28.28-.32.06-.72.1-1.12.1-3.5 0-5.76-1.94-5.76-4.72 0-3.4 2.5-5.52 4.92-7.48.08-.06.14-.1.18-.1.06 0 .08.06.1.18l.42 2.56m.3-3.06c-.04-.24 0-.26.12-.38 2.16-2.02 3.8-4.56 3.8-7.62 0-1.74-.48-3.46-1.3-4.66-.3-.44-.82-1-1.04-1-.28 0-.9.52-1.3.96-1.48 1.64-1.96 4.14-1.96 6.22 0 1.16.14 2.46.28 3.28.04.24.06.28-.18.48-2.88 2.38-5.94 5.24-5.94 9.28 0 3.48 2.38 6.78 7.28 6.78.46 0 .98-.04 1.38-.12.08-.02.12-.02.16-.02.08 0 .12.04.14.2.24 1.34.54 3.08.54 4.02 0 2.96-2 3.32-3.18 3.32-1.08 0-1.6-.32-1.6-.58 0-.14.18-.2.64-.34.62-.18 1.34-.72 1.34-1.88 0-1.1-.7-2.04-1.92-2.04-1.34 0-2.14 1.06-2.14 2.3 0 1.3.78 3.26 3.8 3.26 1.34 0 3.94-.6 3.94-4 0-1.14-.36-3.04-.58-4.28-.04-.24-.02-.22.26-.34 2.02-.8 3.36-2.5 3.36-4.76 0-2.56-1.88-4.82-4.82-4.82-.52 0-.52 0-.58-.36l-.5-2.9" fill="#000" stroke="none" font-family="Bravura" font-size="40"/><text stroke="none" transform="matrix(.5 0 0 .5 89.61 79.633)" fill="#000" font-family="Academico" font-size="22">-</text><text stroke="none" transform="matrix(.5 0 0 .5 238.923 79.633)" fill="#000" font-family="Academico" font-size="22">-</text><text stroke="none" transform="matrix(.5 0 0 .5 394.568 79.633)" fill="#000" font-family="Academico" font-size="22">-</text><text stroke="none" transform="matrix(.5 0 0 .5 420.258 79.633)" fill="#000" font-family="Academico" font-size="22">-</text><text stroke="none" transform="matrix(.5 0 0 .5 539.996 79.633)" fill="#000" font-family="Academico" font-size="22">-</text><text stroke="none" transform="matrix(.5 0 0 .5 575.171 79.633)" fill="#000" font-family="Academico" font-size="22">-</text><text stroke="none" transform="matrix(.5 0 0 .5 30.912 79.633)" fill="#000" font-family="Academico" font-size="22">la</text><text stroke="none" transform="matrix(.5 0 0 .5 66.03 79.633)" fill="#000" font-family="Academico" font-size="22">cui</text><text stroke="none" transform="matrix(.5 0 0 .5 101.056 79.633)" fill="#000" font-family="Academico" font-size="22">sine</text><text stroke="none" transform="matrix(.5 0 0 .5 163.918 79.633)" fill="#000" font-family="Academico" font-size="22">faire</text><text stroke="none" transform="matrix(.5 0 0 .5 205.942 79.633)" fill="#000" font-family="Academico" font-size="22">fon</text><text stroke="none" transform="matrix(.5 0 0 .5 259.076 79.633)" fill="#000" font-family="Academico" font-size="22">dre</text><text stroke="none" transform="matrix(.5 0 0 .5 347.872 79.633)" fill="#000" font-family="Academico" font-size="22">du</text><text stroke="none" transform="matrix(.5 0 0 .5 372.561 79.633)" fill="#000" font-family="Academico" font-size="22">cho</text><text stroke="none" transform="matrix(.5 0 0 .5 402.598 79.633)" fill="#000" font-family="Academico" font-size="22">co</text><text stroke="none" transform="matrix(.5 0 0 .5 430.831 79.633)" fill="#000" font-family="Academico" font-size="22">lat</text><text stroke="none" transform="matrix(.5 0 0 .5 522.532 79.633)" fill="#000" font-family="Academico" font-size="22">a</text><text stroke="none" transform="matrix(.5 0 0 .5 555.664 79.633)" fill="#000" font-family="Academico" font-size="22">jou</text><text stroke="none" transform="matrix(.5 0 0 .5 582.975 79.633)" fill="#000" font-family="Academico" font-size="22">ter</text><text stroke="none" transform="matrix(.5 0 0 .5 608.617 79.633)" fill="#000" font-family="Academico" font-size="22">des</text><text stroke="none" transform="matrix(.5 0 0 .5 640.243 79.633)" fill="#000" font-family="Academico" font-size="22">oeufs</text><text stroke="none" transform="matrix(.5 0 0 .5 729.14 79.633)" fill="#000" font-family="Academico" font-size="22">de</text><path fill-rule="nonzero" d="M356.768 37.212v-2.48h80.64v2.48h-80.64M566.168 37.212v-2.48h80.65v2.48h-80.65" fill="#000" stroke="none" font-family="Academico" font-size="22"/><text stroke="none" transform="matrix(.5 0 0 .5 23.013 29.772)" fill="#000" font-family="Academico" font-size="22">F</text><text stroke="none" transform="matrix(.5 0 0 .5 34.253 29.772)" fill="#000" font-family="Academico" font-size="22">m</text><text stroke="none" transform="matrix(.5 0 0 .5 43.966 26.672)" fill="#000" font-family="Academico" font-size="16">9</text><text stroke="none" transform="matrix(.5 0 0 .5 98.236 29.772)" fill="#000" font-family="Academico" font-size="22">G</text><text stroke="none" transform="matrix(.5 0 0 .5 110.431 29.772)" fill="#000" font-family="Academico" font-size="22">m</text><text stroke="none" transform="matrix(.5 0 0 .5 119.499 26.672)" fill="#000" font-family="Academico" font-size="16">7</text><text stroke="none" transform="matrix(.5 0 0 .5 204.252 29.772)" fill="#000" font-family="Academico" font-size="22">D</text><text stroke="none" transform="matrix(.5 0 0 .5 344.873 29.772)" fill="#000" font-family="Academico" font-size="22">D</text><text stroke="none" transform="matrix(.5 0 0 .5 554.774 29.772)" fill="#000" font-family="Academico" font-size="22">F</text><text stroke="none" y="17.625" font-size="13.392" font-style="italic" transform="matrix(.5 0 0 .5 2.038 20.96)" fill="#000" font-family="Academico">18</text><g fill="none" stroke-width=".62" stroke-linecap="butt" stroke-linejoin="miter" stroke-miterlimit="2" font-family="Academico" font-size="22"><path d="M2.038 124.554h502.82M534.618 124.554h224.42M2.038 129.514h502.82M534.618 129.514h224.42M2.038 134.474h502.82M534.618 134.474h224.42M2.038 144.394h502.82M534.618 144.394h224.42M2.038 139.434h502.82M534.618 139.434h224.42"/></g><g fill="none" stroke-width=".992" stroke-linecap="butt" stroke-linejoin="miter" stroke-miterlimit="2" font-family="Academico" font-size="22"><path d="M172.858 124.244v20.46M341.038 124.244v20.46M499.408 124.244v20.46"/></g><path fill="none" d="M503.618 124.244v20.46" stroke-width="2.48" stroke-linecap="butt" stroke-linejoin="miter" stroke-miterlimit="2" font-family="Academico" font-size="22"/><g fill="none" stroke-width=".992" stroke-linecap="butt" stroke-linejoin="miter" stroke-miterlimit="2" font-family="Academico" font-size="22"><path d="M598.688 124.244v20.46M753.578 124.244v20.46"/></g><path fill="none" d="M757.798 124.244v20.46" stroke-width="2.48" stroke-linecap="butt" stroke-linejoin="miter" stroke-miterlimit="2" font-family="Academico" font-size="22"/><g fill="none" stroke-width=".595" stroke-linecap="butt" stroke-linejoin="miter" stroke-miterlimit="2" font-family="Academico" font-size="22"><path d="M35.373 120.834v15.188M67.834 118.974v14.568M100.288 122.694v15.808M155.698 117.313v16.23M190.098 123.3v15.202M213.038 120.82v15.202M235.988 118.974v14.568M317.888 132.907V148.7M356.938 124.551v16.431M379.888 123.311v15.191M402.848 120.834v15.188M461.788 132.907v15.207M575.538 130.427v15.792M616.778 120.834v15.188M649.238 123.303v15.2M675.208 120.823v15.2M713.458 124.554v16.428"/></g><path fill-rule="nonzero" d="M184.475 110.982v.726h2.904v2.904h.726v-2.904h2.893v-.726h-2.893V108.1h-.726v2.882h-2.904" fill="#000" stroke="none" font-family="Bravura Text" font-size="22"/><path fill-rule="nonzero" d="M198.438 111.534l-3.352-5.712-3.352 5.712h6.704m-5.368-.768l2.016-3.424 2.008 3.424h-4.024M357.173 106.878v4.576c0 .056.024.08.064.08.112 0 1.744-.912 1.744-2.264 0-.52-.328-.768-.752-.768-.336 0-.488.104-.608.328v-1.944c0-.096-.08-.16-.232-.16-.12 0-.216.064-.216.152m.448 3.912v-1.464c.096-.272.28-.368.456-.368.296 0 .328.16.328.544 0 .48-.288 1.056-.736 1.336h-.008c-.024 0-.04-.024-.04-.048" fill="#000" stroke="none" font-family="Bravura Text" font-size="16"/><path fill-rule="nonzero" d="M618.022 108.199l3.333 5.687h-6.666l3.333-5.687m0-1.441l-4.609 7.854h9.207l-4.598-7.854" fill="#000" stroke="none" font-family="Bravura Text" font-size="22"/><path fill-rule="nonzero" d="M31.253 139.754c1.98 0 4.42-1.84 4.42-3.74 0-1.12-.9-1.86-2.18-1.86-2.44 0-4.4 1.82-4.4 3.74 0 1.16.96 1.86 2.16 1.86M63.714 137.274c1.98 0 4.42-1.84 4.42-3.74 0-1.12-.9-1.86-2.18-1.86-2.44 0-4.4 1.82-4.4 3.74 0 1.16.96 1.86 2.16 1.86M87.95 143.614c.02 0 .06-.02.08-.02 0 0 .28-.12.46-.18.02-.02.04-.02.06-.02.14 0 .24.22.24.32v2.46c0 .12.12.22.26.22.2 0 .34-.1.34-.22v-2.78c0-.26.1-.4.2-.44l1.22-.5c.02 0 .06-.02.08-.02.16 0 .26.24.26.36v2.5c0 .12.12.22.26.22.22 0 .34-.1.34-.22v-2.84c0-.16.08-.4.22-.46s.56-.22.56-.22c.14-.06.24-.22.24-.34v-1.42c0-.1-.06-.16-.14-.16-.04 0-.06 0-.1.02l-.52.2c-.12 0-.26-.12-.26-.36v-1.86c0-.14.1-.52.26-.58l.52-.2c.14-.06.24-.22.24-.34v-1.42c0-.1-.06-.16-.14-.16-.04 0-.06 0-.1.02 0 0-.4.16-.5.18-.14 0-.28-.1-.28-.26v-2.44c0-.12-.12-.22-.28-.22-.2 0-.32.1-.32.22v2.6c-.02.2-.08.46-.26.58-.24.14-.92.42-1.26.5-.18 0-.24-.24-.24-.4v-2.4c0-.12-.14-.22-.28-.22-.2 0-.32.1-.32.22v2.7c0 .28-.12.48-.24.54-.12.06-.52.22-.52.22-.14.04-.24.2-.24.32v1.42c0 .12.06.18.16.18.08 0 .46-.18.52-.22.2 0 .32.1.32.34v1.98c0 .22-.1.4-.22.46-.12.04-.54.22-.54.22-.14.04-.24.2-.24.32v1.42c0 .12.06.18.16.18m1.44-5.06c.04-.34.96-.76 1.46-.76.14 0 .26.04.3.12.04.1.08.6.08 1.14 0 .54-.04 1.1-.08 1.28-.12.4-1.06.8-1.52.8-.12 0-.22-.04-.24-.1-.04-.08-.06-.52-.06-1 0-.62.02-1.32.06-1.48M96.166 142.234c1.98 0 4.42-1.84 4.42-3.74 0-1.12-.9-1.86-2.18-1.86-2.44 0-4.4 1.82-4.4 3.74 0 1.16.96 1.86 2.16 1.86M129.148 132.334a1.34 1.34 0 00-2.68 0c0 .42.24.78.54 1.02.32.22.7.34 1.08.34.28 0 .56-.06.78-.14.28-.08.46-.16.72-.3.04-.02.08-.02.1-.02.08 0 .1.08.1.18 0 .06 0 .14-.02.22-.06.3-1.5 4.28-1.86 5.6 0 .24.46.26.58.26.22 0 .5-.04.7-.2.06-.04 2.02-7.06 2.02-7.06.08-.36.18-.68.2-.78 0-.2-.2-.3-.24-.32-.04 0-.1 0-.22.08-.14.12-1.14 1.32-1.8 1.32v-.2M160.165 132.914s.52-1.9.52-3.46c0-2.5-1.04-4.86-2.3-6.86-1.02-1.58-1.86-3.3-2.18-5.22-.06-.32-.22-.44-.6-.44-.12 0-.2.06-.2.3v4.78c1.32.24 3.22 2.96 3.94 4.66.3.68.48 1.82.48 3 0 .9-.14 1.84-.48 2.74-.04.12-.06.22-.06.3 0 .32.2.5.32.58.02.02.06.02.1.02.14 0 .38-.12.46-.4M151.582 137.274c1.98 0 4.42-1.84 4.42-3.74 0-1.12-.9-1.86-2.18-1.86-2.44 0-4.4 1.82-4.4 3.74 0 1.16.96 1.86 2.16 1.86M179.38 143.334c.02 0 .12-.02.14-.04.28-.12 1.4-.6 1.98-.6.2 0 .34.06.34.22v2.98c0 .14.1.24.24.24h.26c.12 0 .24-.1.24-.24v-10.04c0-.1-.08-.16-.16-.16-.02 0-.06 0-.08.02l-.3.1c-.04 0-.06.02-.08.02 0 0-1.28.46-1.8.46-.12 0-.2-.02-.2-.1v-3.34c0-.14-.12-.24-.24-.24h-.26c-.14 0-.24.1-.24.24v10.3c0 .12.06.18.16.18m.58-4.68c0-.28 1.22-.8 1.7-.8.12 0 .18.02.18.1v2.06c0 .36-1.14.82-1.64.82-.14 0-.24-.04-.24-.12v-2.06M185.979 142.234c1.98 0 4.42-1.84 4.42-3.74 0-1.12-.9-1.86-2.18-1.86-2.44 0-4.4 1.82-4.4 3.74 0 1.16.96 1.86 2.16 1.86M208.92 139.754c1.98 0 4.42-1.84 4.42-3.74 0-1.12-.9-1.86-2.18-1.86-2.44 0-4.4 1.82-4.4 3.74 0 1.16.96 1.86 2.16 1.86M231.872 137.274c1.98 0 4.42-1.84 4.42-3.74 0-1.12-.9-1.86-2.18-1.86-2.44 0-4.4 1.82-4.4 3.74 0 1.16.96 1.86 2.16 1.86M263.719 135.234c.32.4.6.78.86 1.2.04.08.12.24.12.28 0 .02 0 .06-.02.08-.04.08-.12.1-.22.1-.08 0-.24-.04-.32-.06-.1 0-.22-.06-.32-.06-.86 0-1.64.86-1.64 1.92 0 1 .86 1.98 2.32 3.1.16.12.36.18.52.18.14 0 .28-.04.3-.12.02-.06.04-.1.04-.14 0-.18-.16-.34-.32-.48-.26 0-.48-.54-.52-.72-.06-.16-.08-.34-.08-.52 0-.82.42-1.46 1.26-1.46.58 0 1.24.22 1.56.34.02 0 .04.02.06.02.06.02.1.02.14.02.06 0 .1-.02.1-.08 0-.24-.52-.9-.74-1.14-.76-.92-1.38-1.66-1.38-2.78 0-.08.02-.18.02-.26.08-1.16.8-2.12 1.32-2.94.06-.1.08-.2.08-.3 0-.2-.08-.38-.08-.38s-2.96-3.52-3.3-3.86c-.1-.1-.24-.16-.36-.16-.2 0-.4.14-.4.42 0 .1.02.2.08.32.08.22 1.22 1.24 1.22 2.68 0 .74-.3 1.6-1.2 2.54-.2.2-.28.42-.28.58 0 .28.2.48.2.48l.98 1.2M297.316 132.334a1.34 1.34 0 00-2.68 0c0 .42.24.78.54 1.02.32.22.7.34 1.08.34.28 0 .56-.06.78-.14.28-.08.46-.16.72-.3.04-.02.08-.02.1-.02.08 0 .1.08.1.18 0 .06 0 .14-.02.22-.06.3-1.5 4.28-1.86 5.6 0 .24.46.26.58.26.22 0 .5-.04.7-.2.06-.04 2.02-7.06 2.02-7.06.08-.36.18-.68.2-.78 0-.2-.2-.3-.24-.32-.04 0-.1 0-.22.08-.14.12-1.14 1.32-1.8 1.32v-.2M311.533 136.174c.02 0 .06-.02.08-.02 0 0 .28-.12.46-.18.02-.02.04-.02.06-.02.14 0 .24.22.24.32v2.46c0 .12.12.22.26.22.2 0 .34-.1.34-.22v-2.78c0-.26.1-.4.2-.44l1.22-.5c.02 0 .06-.02.08-.02.16 0 .26.24.26.36v2.5c0 .12.12.22.26.22.22 0 .34-.1.34-.22v-2.84c0-.16.08-.4.22-.46s.56-.22.56-.22c.14-.06.24-.22.24-.34v-1.42c0-.1-.06-.16-.14-.16-.04 0-.06 0-.1.02l-.52.2c-.12 0-.26-.12-.26-.36v-1.86c0-.14.1-.52.26-.58l.52-.2c.14-.06.24-.22.24-.34v-1.42c0-.1-.06-.16-.14-.16-.04 0-.06 0-.1.02 0 0-.4.16-.5.18-.14 0-.28-.1-.28-.26v-2.44c0-.12-.12-.22-.28-.22-.2 0-.32.1-.32.22v2.6c-.02.2-.08.46-.26.58-.24.14-.92.42-1.26.5-.18 0-.24-.24-.24-.4v-2.4c0-.12-.14-.22-.28-.22-.2 0-.32.1-.32.22v2.7c0 .28-.12.48-.24.54-.12.06-.52.22-.52.22-.14.04-.24.2-.24.32v1.42c0 .12.06.18.16.18.08 0 .46-.18.52-.22.2 0 .32.1.32.34v1.98c0 .22-.1.4-.22.46-.12.04-.54.22-.54.22-.14.04-.24.2-.24.32v1.42c0 .12.06.18.16.18m1.44-5.06c.04-.34.96-.76 1.46-.76.14 0 .26.04.3.12.04.1.08.6.08 1.14 0 .54-.04 1.1-.08 1.28-.12.4-1.06.8-1.52.8-.12 0-.22-.04-.24-.1-.04-.08-.06-.52-.06-1 0-.62.02-1.32.06-1.48M322.389 134.154c.28.84.42 1.84.42 2.74 0 1.18-.5 2.86-.8 3.54-.74 1.68-1.74 3.3-4.42 4.2v4.7c0 .24.1.3.22.3.38 0 .54-.12.58-.44.34-1.9 1.82-3.64 2.84-5.22 1.26-1.98 2.48-4.36 2.48-6.86 0-1.56-.4-2.98-.56-3.62-.06-.22-.18-.3-.32-.3-.3 0-.64.38-.44.96" fill="#000" stroke="none" font-family="Bravura" font-size="40"/><path fill-rule="nonzero" d="M319.749 134.794c1.98 0 4.42-1.84 4.42-3.74 0-1.12-.9-1.86-2.18-1.86-2.44 0-4.4 1.82-4.4 3.74 0 1.16.96 1.86 2.16 1.86M352.822 144.714c1.98 0 4.42-1.84 4.42-3.74 0-1.12-.9-1.86-2.18-1.86-2.44 0-4.4 1.82-4.4 3.74 0 1.16.96 1.86 2.16 1.86M375.772 142.234c1.98 0 4.42-1.84 4.42-3.74 0-1.12-.9-1.86-2.18-1.86-2.44 0-4.4 1.82-4.4 3.74 0 1.16.96 1.86 2.16 1.86M398.724 139.754c1.98 0 4.42-1.84 4.42-3.74 0-1.12-.9-1.86-2.18-1.86-2.44 0-4.4 1.82-4.4 3.74 0 1.16.96 1.86 2.16 1.86M430.571 135.234c.32.4.6.78.86 1.2.04.08.12.24.12.28 0 .02 0 .06-.02.08-.04.08-.12.1-.22.1-.08 0-.24-.04-.32-.06-.1 0-.22-.06-.32-.06-.86 0-1.64.86-1.64 1.92 0 1 .86 1.98 2.32 3.1.16.12.36.18.52.18.14 0 .28-.04.3-.12.02-.06.04-.1.04-.14 0-.18-.16-.34-.32-.48-.26 0-.48-.54-.52-.72-.06-.16-.08-.34-.08-.52 0-.82.42-1.46 1.26-1.46.58 0 1.24.22 1.56.34.02 0 .04.02.06.02.06.02.1.02.14.02.06 0 .1-.02.1-.08 0-.24-.52-.9-.74-1.14-.76-.92-1.38-1.66-1.38-2.78 0-.08.02-.18.02-.26.08-1.16.8-2.12 1.32-2.94.06-.1.08-.2.08-.3 0-.2-.08-.38-.08-.38s-2.96-3.52-3.3-3.86c-.1-.1-.24-.16-.36-.16-.2 0-.4.14-.4.42 0 .1.02.2.08.32.08.22 1.22 1.24 1.22 2.68 0 .74-.3 1.6-1.2 2.54-.2.2-.28.42-.28.58 0 .28.2.48.2.48l.98 1.2M457.049 135.894c.02 0 .12-.02.14-.04.28-.12 1.4-.6 1.98-.6.2 0 .34.06.34.22v2.98c0 .14.1.24.24.24h.26c.12 0 .24-.1.24-.24v-10.04c0-.1-.08-.16-.16-.16-.02 0-.06 0-.08.02l-.3.1c-.04 0-.06.02-.08.02 0 0-1.28.46-1.8.46-.12 0-.2-.02-.2-.1v-3.34c0-.14-.12-.24-.24-.24h-.26c-.14 0-.24.1-.24.24v10.3c0 .12.06.18.16.18m.58-4.68c0-.28 1.22-.8 1.7-.8.12 0 .18.02.18.1v2.06c0 .36-1.14.82-1.64.82-.14 0-.24-.04-.24-.12v-2.06M463.648 134.794c1.98 0 4.42-1.84 4.42-3.74 0-1.12-.9-1.86-2.18-1.86-2.44 0-4.4 1.82-4.4 3.74 0 1.16.96 1.86 2.16 1.86M580.04 131.674c.28.84.42 1.84.42 2.74 0 1.18-.5 2.86-.8 3.54-.74 1.68-1.74 3.3-4.42 4.2v4.7c0 .24.1.3.22.3.38 0 .54-.12.58-.44.34-1.9 1.82-3.64 2.84-5.22 1.26-1.98 2.48-4.36 2.48-6.86 0-1.56-.4-2.98-.56-3.62-.06-.22-.18-.3-.32-.3-.3 0-.64.38-.44.96" fill="#000" stroke="none" font-family="Bravura" font-size="40"/><path fill-rule="nonzero" d="M577.4 132.314c1.98 0 4.42-1.84 4.42-3.74 0-1.12-.9-1.86-2.18-1.86-2.44 0-4.4 1.82-4.4 3.74 0 1.16.96 1.86 2.16 1.86M612.661 139.754c1.98 0 4.42-1.84 4.42-3.74 0-1.12-.9-1.86-2.18-1.86-2.44 0-4.4 1.82-4.4 3.74 0 1.16.96 1.86 2.16 1.86M645.122 142.234c1.98 0 4.42-1.84 4.42-3.74 0-1.12-.9-1.86-2.18-1.86-2.44 0-4.4 1.82-4.4 3.74 0 1.16.96 1.86 2.16 1.86M671.088 139.754c1.98 0 4.42-1.84 4.42-3.74 0-1.12-.9-1.86-2.18-1.86-2.44 0-4.4 1.82-4.4 3.74 0 1.16.96 1.86 2.16 1.86M701.123 146.094c.02 0 .06-.02.08-.02 0 0 .28-.12.46-.18.02-.02.04-.02.06-.02.14 0 .24.22.24.32v2.46c0 .12.12.22.26.22.2 0 .34-.1.34-.22v-2.78c0-.26.1-.4.2-.44l1.22-.5c.02 0 .06-.02.08-.02.16 0 .26.24.26.36v2.5c0 .12.12.22.26.22.22 0 .34-.1.34-.22v-2.84c0-.16.08-.4.22-.46s.56-.22.56-.22c.14-.06.24-.22.24-.34v-1.42c0-.1-.06-.16-.14-.16-.04 0-.06 0-.1.02l-.52.2c-.12 0-.26-.12-.26-.36v-1.86c0-.14.1-.52.26-.58l.52-.2c.14-.06.24-.22.24-.34v-1.42c0-.1-.06-.16-.14-.16-.04 0-.06 0-.1.02 0 0-.4.16-.5.18-.14 0-.28-.1-.28-.26v-2.44c0-.12-.12-.22-.28-.22-.2 0-.32.1-.32.22v2.6c-.02.2-.08.46-.26.58-.24.14-.92.42-1.26.5-.18 0-.24-.24-.24-.4v-2.4c0-.12-.14-.22-.28-.22-.2 0-.32.1-.32.22v2.7c0 .28-.12.48-.24.54-.12.06-.52.22-.52.22-.14.04-.24.2-.24.32v1.42c0 .12.06.18.16.18.08 0 .46-.18.52-.22.2 0 .32.1.32.34v1.98c0 .22-.1.4-.22.46-.12.04-.54.22-.54.22-.14.04-.24.2-.24.32v1.42c0 .12.06.18.16.18m1.44-5.06c.04-.34.96-.76 1.46-.76.14 0 .26.04.3.12.04.1.08.6.08 1.14 0 .54-.04 1.1-.08 1.28-.12.4-1.06.8-1.52.8-.12 0-.22-.04-.24-.1-.04-.08-.06-.52-.06-1 0-.62.02-1.32.06-1.48M709.34 144.714c3.68 0 4.42-3 4.42-3.72 0-1.14-.9-1.88-2.2-1.88-3.34 0-4.38 2.58-4.38 3.74 0 1.18.94 1.86 2.16 1.86m1.7-1.78c-1 .68-1.7.92-2.18.92-.46 0-.74-.24-.88-.52a.82.82 0 01-.14-.44c0-1.08 3.22-2.86 4.28-2.86.42 0 .66.2.82.48.06.12.12.26.12.42 0 .44-.46.98-2.02 2M13.919 120.574c.66 0 1.2.54 1.2 1.64 0 2.22-1.9 4.02-3.48 5.4-.06.04-.1.08-.14.08-.06 0-.1-.08-.12-.24-.08-.52-.12-1.2-.12-1.84 0-3.12 1.44-5.04 2.66-5.04m-.8 16.8c-.04-.22-.02-.28.14-.28h.08c1.62.14 2.96 1.5 2.96 3.26 0 1.26-.76 2.28-1.88 2.84-.1.04-.16.08-.2.08-.08 0-.1-.06-.12-.2l-.98-5.7m-1.38-3.18c.06.38.06.36-.3.48-1.76.6-2.9 2.18-2.9 3.88 0 1.8.94 3.08 2.3 3.54.16.06.4.12.54.12.16 0 .24-.1.24-.22 0-.14-.16-.2-.3-.26-.84-.36-1.44-1.22-1.44-2.14 0-1.14.78-2 2-2.34.1-.02.18-.04.24-.04.1 0 .14.06.16.2l1 5.96c.04.22.02.22-.28.28-.32.06-.72.1-1.12.1-3.5 0-5.76-1.94-5.76-4.72 0-3.4 2.5-5.52 4.92-7.48.08-.06.14-.1.18-.1.06 0 .08.06.1.18l.42 2.56m.3-3.06c-.04-.24 0-.26.12-.38 2.16-2.02 3.8-4.56 3.8-7.62 0-1.74-.48-3.46-1.3-4.66-.3-.44-.82-1-1.04-1-.28 0-.9.52-1.3.96-1.48 1.64-1.96 4.14-1.96 6.22 0 1.16.14 2.46.28 3.28.04.24.06.28-.18.48-2.88 2.38-5.94 5.24-5.94 9.28 0 3.48 2.38 6.78 7.28 6.78.46 0 .98-.04 1.38-.12.08-.02.12-.02.16-.02.08 0 .12.04.14.2.24 1.34.54 3.08.54 4.02 0 2.96-2 3.32-3.18 3.32-1.08 0-1.6-.32-1.6-.58 0-.14.18-.2.64-.34.62-.18 1.34-.72 1.34-1.88 0-1.1-.7-2.04-1.92-2.04-1.34 0-2.14 1.06-2.14 2.3 0 1.3.78 3.26 3.8 3.26 1.34 0 3.94-.6 3.94-4 0-1.14-.36-3.04-.58-4.28-.04-.24-.02-.22.26-.34 2.02-.8 3.36-2.5 3.36-4.76 0-2.56-1.88-4.82-4.82-4.82-.52 0-.52 0-.58-.36l-.5-2.9M546.502 120.574c.66 0 1.2.54 1.2 1.64 0 2.22-1.9 4.02-3.48 5.4-.06.04-.1.08-.14.08-.06 0-.1-.08-.12-.24-.08-.52-.12-1.2-.12-1.84 0-3.12 1.44-5.04 2.66-5.04m-.8 16.8c-.04-.22-.02-.28.14-.28h.08c1.62.14 2.96 1.5 2.96 3.26 0 1.26-.76 2.28-1.88 2.84-.1.04-.16.08-.2.08-.08 0-.1-.06-.12-.2l-.98-5.7m-1.38-3.18c.06.38.06.36-.3.48-1.76.6-2.9 2.18-2.9 3.88 0 1.8.94 3.08 2.3 3.54.16.06.4.12.54.12.16 0 .24-.1.24-.22 0-.14-.16-.2-.3-.26-.84-.36-1.44-1.22-1.44-2.14 0-1.14.78-2 2-2.34.1-.02.18-.04.24-.04.1 0 .14.06.16.2l1 5.96c.04.22.02.22-.28.28-.32.06-.72.1-1.12.1-3.5 0-5.76-1.94-5.76-4.72 0-3.4 2.5-5.52 4.92-7.48.08-.06.14-.1.18-.1.06 0 .08.06.1.18l.42 2.56m.3-3.06c-.04-.24 0-.26.12-.38 2.16-2.02 3.8-4.56 3.8-7.62 0-1.74-.48-3.46-1.3-4.66-.3-.44-.82-1-1.04-1-.28 0-.9.52-1.3.96-1.48 1.64-1.96 4.14-1.96 6.22 0 1.16.14 2.46.28 3.28.04.24.06.28-.18.48-2.88 2.38-5.94 5.24-5.94 9.28 0 3.48 2.38 6.78 7.28 6.78.46 0 .98-.04 1.38-.12.08-.02.12-.02.16-.02.08 0 .12.04.14.2.24 1.34.54 3.08.54 4.02 0 2.96-2 3.32-3.18 3.32-1.08 0-1.6-.32-1.6-.58 0-.14.18-.2.64-.34.62-.18 1.34-.72 1.34-1.88 0-1.1-.7-2.04-1.92-2.04-1.34 0-2.14 1.06-2.14 2.3 0 1.3.78 3.26 3.8 3.26 1.34 0 3.94-.6 3.94-4 0-1.14-.36-3.04-.58-4.28-.04-.24-.02-.22.26-.34 2.02-.8 3.36-2.5 3.36-4.76 0-2.56-1.88-4.82-4.82-4.82-.52 0-.52 0-.58-.36l-.5-2.9M495.43 130.994c-.56 0-1 .44-1 1s.44 1 1 1c.54 0 1-.44 1-1s-.46-1-1-1M495.43 135.954c-.56 0-1 .44-1 1s.44 1 1 1c.54 0 1-.44 1-1s-.46-1-1-1" fill="#000" stroke="none" font-family="Bravura" font-size="40"/><text stroke="none" transform="matrix(.5 0 0 .5 77.034 162.746)" fill="#000" font-family="Academico" font-size="22">-</text><text stroke="none" transform="matrix(.5 0 0 .5 333.37 162.746)" fill="#000" font-family="Academico" font-size="22">-</text><text stroke="none" transform="matrix(.5 0 0 .5 594.308 162.746)" fill="#000" font-family="Academico" font-size="22">-</text><text stroke="none" transform="matrix(.5 0 0 .5 688.353 162.746)" fill="#000" font-family="Academico" font-size="22">-</text><text stroke="none" transform="matrix(.5 0 0 .5 27.796 162.746)" fill="#000" font-family="Academico" font-size="22">la</text><text stroke="none" transform="matrix(.5 0 0 .5 60.16 162.746)" fill="#000" font-family="Academico" font-size="22">fa</text><text stroke="none" transform="matrix(.5 0 0 .5 87.315 162.746)" fill="#000" font-family="Academico" font-size="22">rine</text><text stroke="none" transform="matrix(.5 0 0 .5 148.136 162.746)" fill="#000" font-family="Academico" font-size="22">et</text><text stroke="none" transform="matrix(.5 0 0 .5 174.027 162.746)" fill="#000" font-family="Academico" font-size="22">faire</text><text stroke="none" transform="matrix(.5 0 0 .5 201.822 162.746)" fill="#000" font-family="Academico" font-size="22">des</text><text stroke="none" transform="matrix(.5 0 0 .5 223.236 162.746)" fill="#000" font-family="Academico" font-size="22">crêpes</text><text stroke="none" transform="matrix(.5 0 0 .5 318.163 162.746)" fill="#000" font-family="Academico" font-size="22">a</text><text stroke="none" transform="matrix(.5 0 0 .5 345.896 162.746)" fill="#000" font-family="Academico" font-size="22">vec</text><text stroke="none" transform="matrix(.5 0 0 .5 366.745 162.746)" fill="#000" font-family="Academico" font-size="22">tout</text><text stroke="none" transform="matrix(.5 0 0 .5 394.642 162.746)" fill="#000" font-family="Academico" font-size="22">ça</text><text stroke="none" transform="matrix(.5 0 0 .5 454.488 162.746)" fill="#000" font-family="Academico" font-size="22">Mes</text><text stroke="none" transform="matrix(.5 0 0 .5 569.505 162.746)" fill="#000" font-family="Academico" font-size="22">pen</text><text stroke="none" transform="matrix(.5 0 0 .5 603.494 162.746)" fill="#000" font-family="Academico" font-size="22">sées</text><text stroke="none" transform="matrix(.5 0 0 .5 638.423 162.746)" fill="#000" font-family="Academico" font-size="22">qui</text><text stroke="none" transform="matrix(.5 0 0 .5 660.365 162.746)" fill="#000" font-family="Academico" font-size="22">m’en</text><text stroke="none" transform="matrix(.5 0 0 .5 695.324 162.746)" fill="#000" font-family="Academico" font-size="22">ivrent</text><text stroke="none" transform="matrix(.5 0 0 .5 555.077 129.474)" fill="#000" font-family="Bravura" font-size="40"></text><text stroke="none" transform="matrix(.5 0 0 .5 555.077 139.49)" fill="#000" font-family="Bravura" font-size="40"></text><g fill="#000" font-family="Bravura" font-size="40" stroke="none"><text y="32.766" font-family="Bravura Text" font-size="21.824" transform="matrix(.5 0 0 .5 567.79 85.678)"></text><text x="22.234" y="32.766" font-family="Academico" font-size="16.368" font-weight="700" transform="matrix(.5 0 0 .5 567.79 85.678)">Coda</text></g><path fill-rule="nonzero" d="M189.798 124.554v-2.494l23.54-2.48v2.494l-23.54 2.48M356.648 125.794v-2.483l23.54-1.24v2.483l-23.54 1.24M648.948 124.554v-2.49l26.56-2.48v2.49l-26.56 2.48" fill="#000" stroke="none" font-family="Bravura" font-size="40"/><text stroke="none" transform="matrix(.5 0 0 .5 21.442 114.634)" fill="#000" font-family="Academico" font-size="22">A</text><text stroke="none" transform="matrix(.5 0 0 .5 29.912 114.634)" fill="#000" font-family="Academico" font-size="22">m</text><text stroke="none" transform="matrix(.5 0 0 .5 39.625 111.534)" fill="#000" font-family="Academico" font-size="16">6</text><text stroke="none" transform="matrix(.5 0 0 .5 175.653 114.634)" fill="#000" font-family="Academico" font-size="22">G</text><text stroke="none" transform="matrix(.5 0 0 .5 345.086 114.634)" fill="#000" font-family="Academico" font-size="22">F</text><text stroke="none" transform="matrix(.5 0 0 .5 352.237 111.534)" fill="#000" font-family="Academico" font-size="16">7</text><text stroke="none" transform="matrix(.5 0 0 .5 358.908 111.534)" fill="#000" font-family="Academico" font-size="16">5</text><text stroke="none" transform="matrix(.5 0 0 .5 604.839 114.634)" fill="#000" font-family="Academico" font-size="22">G</text><text stroke="none" y="17.625" font-size="13.392" font-style="italic" transform="matrix(.5 0 0 .5 2.038 105.822)" fill="#000" font-family="Academico">22</text><text stroke="none" y="19.594" font-size="15" transform="matrix(.5 0 0 .5 2.038 -.308)" fill="#000" font-family="Academico">2</text></g></svg>